<svg xmlns="http://www.w3.org/2000/svg" version="1.1" xmlns:xlink="http://www.w3.org/1999/xlink" xmlns:svgjs="http://svgjs.dev/svgjs" width="1000" height="249" viewBox="0 0 1000 249"><g transform="matrix(1,0,0,1,-0.6002374354627591,0.2549824984667737)"><svg viewBox="0 0 396 99" data-background-color="#ffffff" preserveAspectRatio="xMidYMid meet" height="249" width="1000" xmlns="http://www.w3.org/2000/svg" xmlns:xlink="http://www.w3.org/1999/xlink"><defs></defs><g id="tight-bounds" transform="matrix(1,0,0,1,0.2376940325650594,-0.10137858372775099)"><svg viewBox="0 0 395.52 99.20275716745549" height="99.20275716745549" width="395.52"><g><svg viewBox="0 0 710.2034096432362 178.13040146221906" height="99.20275716745549" width="395.52"><g><rect width="11.266281680821253" height="178.13040146221906" x="425.01288398120744" y="0" fill="#000000" opacity="1" stroke-width="0" stroke="transparent" fill-opacity="1" className="rect-o-0" data-fill-palette-color="primary" rx="1%" id="o-0" data-palette-color="#551e19"></rect></g><g transform="matrix(1,0,0,1,0,0.4431104513985389)"><svg viewBox="0 0 395.52 177.24418055942198" height="177.24418055942198" width="395.52"><g><svg viewBox="0 0 395.52 177.24418055942198" height="177.24418055942198" width="395.52"><g><svg viewBox="0 0 395.52 124.92961580680571" height="124.92961580680571" width="395.52"><g transform="matrix(1,0,0,1,0,0)"><svg width="395.52" viewBox="-6.800000190734863 -36.849998474121094 182.48001098632812 57.54999923706055" height="124.92961580680571" data-palette-color="#551e19"><g className="undefined-text-0" data-fill-palette-color="primary" id="text-0"><path d="M27.9-4.2L27.9-4.2Q27.9-2.25 25.25-1.6L25.25-1.6Q25.1-1.6 25.1-1.8 25.1-2 25.45-2.25L25.45-2.25Q26.45-3 26.45-3.9L26.45-3.9Q26.45-5.65 23.55-6.5L23.55-6.5Q18.7-2.1 13.4 0.53 8.1 3.15 3.45 3.15L3.45 3.15Q-0.1 3.15-0.1 0.68-0.1-1.8 3.1-3.93 6.3-6.05 10.75-7.15 15.2-8.25 18.45-8.25 21.7-8.25 23.3-7.9L23.3-7.9Q28.2-12.65 31.3-17.82 34.4-23 34.4-26.93 34.4-30.85 31.48-33 28.55-35.15 22.65-35.15 16.75-35.15 10.43-33.02 4.1-30.9-0.3-27.45-4.7-24-4.7-20.65L-4.7-20.65Q-4.7-18.75-2.35-18.75L-2.35-18.75Q1-18.75 4.25-20.43 7.5-22.1 12.75-26.5L12.75-26.5Q13.4-27.25 13.7-27.25L13.7-27.25Q14.2-27.25 14.2-26.9L14.2-26.9Q14.2-26.8 13.85-26.2L13.85-26.2Q12.55-24.9 10.2-23.05 7.85-21.2 5.85-19.95 3.85-18.7 1.33-17.7-1.2-16.7-3.25-16.7L-3.25-16.7Q-6.8-16.7-6.8-19.85L-6.8-19.85Q-6.8-23.4-1.73-27.45 3.35-31.5 10.65-34.18 17.95-36.85 24.2-36.85 30.45-36.85 33.45-34.5 36.45-32.15 36.45-27.95 36.45-23.75 33.18-18.15 29.9-12.55 24.7-7.55L24.7-7.55Q27.9-6.55 27.9-4.2ZM22.1-6.8L22.1-6.8Q20.45-7.05 17.78-7.05 15.1-7.05 11.4-6.2 7.7-5.35 5.03-3.55 2.35-1.75 2.35 0.5L2.35 0.5Q2.35 2.15 4.5 2.15L4.5 2.15Q8.3 2.15 12.98-0.3 17.65-2.75 22.1-6.8ZM21.85-32.5L22.1-32.3Q22.1-32.05 16.2-21.65 10.3-11.25 8.55-8.3L8.55-8.3Q8.25-7.65 7.45-7.3 6.65-6.95 6.23-6.95 5.8-6.95 5.8-7.18 5.8-7.4 9.3-13.4L9.3-13.4Q19.75-31.3 19.6-31.35L19.6-31.35Q19.9-31.85 20.6-32.1L20.6-32.1 21.85-32.5ZM29.55-3.35L29.55-3.35Q29.35-3.25 29.17-3.25 29-3.25 29-3.45 29-3.65 29.15-3.8L29.15-3.8Q31.2-4.95 33.65-7.55L33.65-7.55Q31.4-8.25 31.4-9.53 31.4-10.8 33.1-12.38 34.8-13.95 36.3-13.95L36.3-13.95Q37.3-13.95 37.3-12.75L37.3-12.75Q37.3-10.9 35.45-8.8L35.45-8.8Q37.85-8.4 37.85-7.65L37.85-7.65Q37.85-6.65 36.97-6.13 36.1-5.6 34.95-4.25 33.8-2.9 33.8-1.55L33.8-1.55Q33.8-1.25 34-1 34.2-0.75 34.85-0.75 35.5-0.75 37.6-1.73 39.7-2.7 41.3-3.7L41.3-3.7 42.9-4.7Q42.95-4.6 42.95-4.3 42.95-4 42.5-3.8L42.5-3.8Q35.75 0.8 33.1 0.8L33.1 0.8Q31.8 0.8 31.8-0.5L31.8-0.5Q31.8-1.55 32.52-2.7 33.25-3.85 34.12-4.6 35-5.35 35.72-6.03 36.45-6.7 36.45-6.9 36.45-7.1 35.82-7.15 35.2-7.2 34.2-7.4L34.2-7.4Q31.45-4.45 29.55-3.35ZM32.65-10.3L32.65-10.3Q32.65-9.3 34.85-8.9L34.85-8.9Q36.15-10.5 36.15-11.68 36.15-12.85 35.4-12.85 34.65-12.85 33.65-11.98 32.65-11.1 32.65-10.3ZM44.25-4.85L44.25-4.85Q41.25-4.85 41.25-6.15L41.25-6.15Q41.25-7.7 44.8-9.83 48.35-11.95 51.2-11.95L51.2-11.95Q52.65-11.95 52.65-11.05L52.65-11.05Q52.65-10.55 51.9-9.95 51.15-9.35 50.45-9 49.75-8.65 49.65-8.65L49.65-8.65Q49.35-8.65 49.25-8.9L49.25-8.9Q49.15-9.25 49.77-9.63 50.4-10 50.4-10.45 50.4-10.9 49.27-10.9 48.15-10.9 45.75-9.33 43.35-7.75 43.35-6.75L43.35-6.75Q43.35-6 45.1-6L45.1-6Q45.4-6 46.2-6.05 47-6.1 47-5.85 47-5.6 44.52-4.05 42.05-2.5 42.05-1.4L42.05-1.4Q42.05-0.15 43.67-0.15 45.3-0.15 47.35-1L47.35-1Q50.65-2.45 53.35-4.1L53.35-4.1 54.3-4.7Q54.35-4.6 54.35-4.3 54.35-4 53.9-3.8L53.9-3.8Q51.25-2 48.1-0.38 44.95 1.25 42.42 1.25 39.9 1.25 39.9-0.43 39.9-2.1 44.25-4.85ZM62.29-5.95L62.29-5.95Q61.99-5.95 61.99-6.3L61.99-6.3 62.14-6.65Q63.04-7.5 63.04-8.1L63.04-8.1Q63.04-8.85 62.24-8.85L62.24-8.85Q60.49-8.85 57.52-6.43 54.54-4 54.54-2.1L54.54-2.1Q54.54-1.3 55.59-1.3 56.64-1.3 58.02-2.18 59.39-3.05 60.37-3.93 61.34-4.8 61.44-4.8L61.44-4.8Q61.94-4.75 61.94-4.3L61.94-4.3Q61.94-4.1 61.17-3 60.39-1.9 60.39-1.25L60.39-1.25Q60.39-0.75 61.22-0.75 62.04-0.75 64.14-1.73 66.24-2.7 67.84-3.7L67.84-3.7 69.44-4.7Q69.49-4.6 69.49-4.3 69.49-4 69.04-3.8L69.04-3.8Q62.29 0.8 59.64 0.8L59.64 0.8Q58.34 0.8 58.34-0.5L58.34-0.5Q58.34-1.05 58.54-1.65L58.54-1.65Q58.19-1.25 56.47-0.43 54.74 0.4 53.39 0.4 52.04 0.4 52.04-0.85L52.04-0.85Q52.04-3.8 56.14-6.88 60.24-9.95 63.04-9.95L63.04-9.95Q64.69-9.95 64.69-8.55L64.69-8.55Q64.69-7.75 63.69-6.85 62.69-5.95 62.29-5.95ZM69.59-4.15L69.59-4.15 68.34-3.35Q68.14-3.25 67.97-3.25 67.79-3.25 67.79-3.45 67.79-3.65 67.94-3.8L67.94-3.8Q68.34-4 70.47-5.63 72.59-7.25 73.22-7.25 73.84-7.25 73.84-6.53 73.84-5.8 72.32-3.55 70.79-1.3 70.79-1.13 70.79-0.95 70.89-0.95L70.89-0.95Q71.34-0.95 76.09-4.9 80.84-8.85 81.24-8.85L81.24-8.85Q81.99-8.85 81.99-8.15L81.99-8.15Q81.99-7.7 80.27-5.08 78.54-2.45 77.99-1.5L77.99-1.5Q78.04-1.45 78.22-1.45 78.39-1.45 80.24-2.78 82.09-4.1 84.09-5.6 86.09-7.1 86.44-7.33 86.79-7.55 87.09-7.55L87.09-7.55Q87.69-7.5 87.69-6.85L87.69-6.85Q87.69-6.6 85.97-4.23 84.24-1.85 84.24-1.2L84.24-1.2Q84.24-0.75 85.32-0.75 86.39-0.75 88.49-1.73 90.59-2.7 92.19-3.7L92.19-3.7 93.79-4.7Q93.84-4.6 93.84-4.3 93.84-4 93.39-3.8L93.39-3.8Q86.64 0.8 83.99 0.8L83.99 0.8Q82.44 0.8 82.44-0.4L82.44-0.4Q82.44-1.55 83.12-2.6 83.79-3.65 84.29-4.38 84.79-5.1 84.79-5.15L84.79-5.15Q78.09-0.25 77.07 0.23 76.04 0.7 75.59 0.7 75.14 0.7 75.14-0.3L75.14-0.3 78.74-5.9Q78.14-5.65 74.84-3.15 71.54-0.65 69.69 1L69.69 1Q68.99 1.85 68.34 1.85L68.34 1.85Q67.69 1.7 67.69 1L67.69 1Q67.69 0.8 69.52-1.95 71.34-4.7 71.34-4.93 71.34-5.15 71.22-5.15 71.09-5.15 70.79-4.98 70.49-4.8 70.09-4.5 69.69-4.2 69.59-4.15ZM105.14-9.35Q105.14-9.3 104.01-7.58 102.89-5.85 102.26-4.95 101.64-4.05 97.04 3.45L97.04 3.45Q97.44 3.4 98.34 3.4L98.34 3.4Q100.74 3.4 100.74 4.65L100.74 4.65Q100.74 5.35 99.84 6.3 98.94 7.25 98.44 7.25 97.94 7.25 97.94 6.9L97.94 6.9Q97.94 6.7 98.49 6.28 99.04 5.85 99.04 5.28 99.04 4.7 98.06 4.7 97.09 4.7 96.19 4.85L96.19 4.85Q91.64 12.3 88.34 16.5 85.04 20.7 82.69 20.7L82.69 20.7Q80.99 20.7 80.99 18.95L80.99 18.95Q80.99 15.95 85.51 10.63 90.04 5.3 95.34 3.8L95.34 3.8 100.14-4.5Q98.04-2.6 95.81-1.15 93.59 0.3 92.44 0.3 91.29 0.3 91.29-0.75L91.29-0.75Q91.29-2.35 96.54-9.6L96.54-9.6Q96.79-10 97.19-10L97.19-10Q98.34-9.65 98.34-9.5 98.34-9.35 98.04-8.9L98.04-8.9Q93.54-2.8 93.54-1.85L93.54-1.85Q93.54-1.25 94.21-1.25 94.89-1.25 97.01-2.85 99.14-4.45 100.64-6.1L100.64-6.1 103.44-9.5Q103.74-9.85 104.19-9.85L104.19-9.85Q105.14-9.7 105.14-9.35L105.14-9.35ZM85.84 11.68Q84.39 13.65 83.54 15.43 82.69 17.2 82.69 18.23 82.69 19.25 83.49 19.25L83.49 19.25Q85.99 19.25 94.44 5.25L94.44 5.25Q91.94 6.05 89.61 7.88 87.29 9.7 85.84 11.68Z" fill="#000000" data-fill-palette-color="primary"></path><path d="M133.04-4.2L133.04-4.2Q133.04-2.25 130.39-1.6L130.39-1.6Q130.24-1.6 130.24-1.8 130.24-2 130.59-2.25L130.59-2.25Q131.59-3 131.59-3.9L131.59-3.9Q131.59-5.65 128.69-6.5L128.69-6.5Q123.84-2.1 118.54 0.53 113.24 3.15 108.59 3.15L108.59 3.15Q105.04 3.15 105.04 0.68 105.04-1.8 108.24-3.93 111.44-6.05 115.89-7.15 120.34-8.25 123.59-8.25 126.84-8.25 128.44-7.9L128.44-7.9Q133.34-12.65 136.44-17.82 139.54-23 139.54-26.93 139.54-30.85 136.62-33 133.69-35.15 127.79-35.15 121.89-35.15 115.57-33.02 109.24-30.9 104.84-27.45 100.44-24 100.44-20.65L100.44-20.65Q100.44-18.75 102.79-18.75L102.79-18.75Q106.14-18.75 109.39-20.43 112.64-22.1 117.89-26.5L117.89-26.5Q118.54-27.25 118.84-27.25L118.84-27.25Q119.34-27.25 119.34-26.9L119.34-26.9Q119.34-26.8 118.99-26.2L118.99-26.2Q117.69-24.9 115.34-23.05 112.99-21.2 110.99-19.95 108.99-18.7 106.47-17.7 103.94-16.7 101.89-16.7L101.89-16.7Q98.34-16.7 98.34-19.85L98.34-19.85Q98.34-23.4 103.41-27.45 108.49-31.5 115.79-34.18 123.09-36.85 129.34-36.85 135.59-36.85 138.59-34.5 141.59-32.15 141.59-27.95 141.59-23.75 138.32-18.15 135.04-12.55 129.84-7.55L129.84-7.55Q133.04-6.55 133.04-4.2ZM127.24-6.8L127.24-6.8Q125.59-7.05 122.92-7.05 120.24-7.05 116.54-6.2 112.84-5.35 110.17-3.55 107.49-1.75 107.49 0.5L107.49 0.5Q107.49 2.15 109.64 2.15L109.64 2.15Q113.44 2.15 118.12-0.3 122.79-2.75 127.24-6.8ZM126.99-32.5L127.24-32.3Q127.24-32.05 121.34-21.65 115.44-11.25 113.69-8.3L113.69-8.3Q113.39-7.65 112.59-7.3 111.79-6.95 111.37-6.95 110.94-6.95 110.94-7.18 110.94-7.4 114.44-13.4L114.44-13.4Q124.89-31.3 124.74-31.35L124.74-31.35Q125.04-31.85 125.74-32.1L125.74-32.1 126.99-32.5ZM134.69-3.35L134.69-3.35Q134.49-3.25 134.31-3.25 134.14-3.25 134.14-3.45 134.14-3.65 134.29-3.8L134.29-3.8Q136.34-4.95 138.79-7.55L138.79-7.55Q136.54-8.25 136.54-9.53 136.54-10.8 138.24-12.38 139.94-13.95 141.44-13.95L141.44-13.95Q142.44-13.95 142.44-12.75L142.44-12.75Q142.44-10.9 140.59-8.8L140.59-8.8Q142.99-8.4 142.99-7.65L142.99-7.65Q142.99-6.65 142.11-6.13 141.24-5.6 140.09-4.25 138.94-2.9 138.94-1.55L138.94-1.55Q138.94-1.25 139.14-1 139.34-0.75 139.99-0.75 140.64-0.75 142.74-1.73 144.84-2.7 146.44-3.7L146.44-3.7 148.04-4.7Q148.09-4.6 148.09-4.3 148.09-4 147.64-3.8L147.64-3.8Q140.89 0.8 138.24 0.8L138.24 0.8Q136.94 0.8 136.94-0.5L136.94-0.5Q136.94-1.55 137.66-2.7 138.39-3.85 139.26-4.6 140.14-5.35 140.86-6.03 141.59-6.7 141.59-6.9 141.59-7.1 140.96-7.15 140.34-7.2 139.34-7.4L139.34-7.4Q136.59-4.45 134.69-3.35ZM137.79-10.3L137.79-10.3Q137.79-9.3 139.99-8.9L139.99-8.9Q141.29-10.5 141.29-11.68 141.29-12.85 140.54-12.85 139.79-12.85 138.79-11.98 137.79-11.1 137.79-10.3ZM149.39-4.85L149.39-4.85Q146.39-4.85 146.39-6.15L146.39-6.15Q146.39-7.7 149.94-9.83 153.49-11.95 156.34-11.95L156.34-11.95Q157.79-11.95 157.79-11.05L157.79-11.05Q157.79-10.55 157.04-9.95 156.29-9.35 155.59-9 154.89-8.65 154.79-8.65L154.79-8.65Q154.49-8.65 154.39-8.9L154.39-8.9Q154.29-9.25 154.91-9.63 155.54-10 155.54-10.45 155.54-10.9 154.41-10.9 153.29-10.9 150.89-9.33 148.49-7.75 148.49-6.75L148.49-6.75Q148.49-6 150.24-6L150.24-6Q150.54-6 151.34-6.05 152.14-6.1 152.14-5.85 152.14-5.6 149.66-4.05 147.19-2.5 147.19-1.4L147.19-1.4Q147.19-0.15 148.81-0.15 150.44-0.15 152.49-1L152.49-1Q155.79-2.45 158.49-4.1L158.49-4.1 159.44-4.7Q159.49-4.6 159.49-4.3 159.49-4 159.04-3.8L159.04-3.8Q156.39-2 153.24-0.38 150.09 1.25 147.56 1.25 145.04 1.25 145.04-0.43 145.04-2.1 149.39-4.85ZM161.03-5.45L161.03-5.45Q158.63-3.25 157.98-3.25L157.98-3.25Q157.78-3.25 157.78-3.45 157.78-3.65 157.93-3.8L157.93-3.8Q159.13-4.45 160.73-5.9L160.73-5.9Q160.48-6.5 160.48-7.2L160.48-7.2Q160.48-8.9 162.23-10.45 163.98-12 165.18-12L165.18-12Q165.83-12 165.83-11.38 165.83-10.75 163.83-8.35L163.83-8.35Q163.63-8.1 163.38-7.85 163.13-7.6 162.86-7.28 162.58-6.95 162.43-6.8L162.43-6.8Q162.68-6.55 163.33-5.93 163.98-5.3 164.38-4.9L164.38-4.9Q165.48-3.8 165.48-2.15 165.48-0.5 163.43 0.73 161.38 1.95 159.16 1.95 156.93 1.95 156.93 0.63 156.93-0.7 158.98-1.8 161.03-2.9 163.28-3.3L163.28-3.3Q162.98-3.7 162.16-4.35 161.33-5 161.03-5.45ZM163.63-2.7Q161.93-2.5 160.43-1.78 158.93-1.05 158.93-0.08 158.93 0.9 160.31 0.9 161.68 0.9 162.76 0.25 163.83-0.4 163.83-1.2 163.83-2 163.63-2.7L163.63-2.7ZM162.08-7.2L162.08-7.2 163.38-8.6Q164.68-10.15 164.68-10.48 164.68-10.8 164.38-10.8L164.38-10.8Q163.53-10.8 162.63-9.98 161.73-9.15 161.73-8.38 161.73-7.6 162.08-7.2ZM170.88-5.45L170.88-5.45Q168.48-3.25 167.83-3.25L167.83-3.25Q167.63-3.25 167.63-3.45 167.63-3.65 167.78-3.8L167.78-3.8Q168.98-4.45 170.58-5.9L170.58-5.9Q170.33-6.5 170.33-7.2L170.33-7.2Q170.33-8.9 172.08-10.45 173.83-12 175.03-12L175.03-12Q175.68-12 175.68-11.38 175.68-10.75 173.68-8.35L173.68-8.35Q173.48-8.1 173.23-7.85 172.98-7.6 172.71-7.28 172.43-6.95 172.28-6.8L172.28-6.8Q172.53-6.55 173.18-5.93 173.83-5.3 174.23-4.9L174.23-4.9Q175.33-3.8 175.33-2.15 175.33-0.5 173.28 0.73 171.23 1.95 169.01 1.95 166.78 1.95 166.78 0.63 166.78-0.7 168.83-1.8 170.88-2.9 173.13-3.3L173.13-3.3Q172.83-3.7 172.01-4.35 171.18-5 170.88-5.45ZM173.48-2.7Q171.78-2.5 170.28-1.78 168.78-1.05 168.78-0.08 168.78 0.9 170.16 0.9 171.53 0.9 172.61 0.25 173.68-0.4 173.68-1.2 173.68-2 173.48-2.7L173.48-2.7ZM171.93-7.2L171.93-7.2 173.23-8.6Q174.53-10.15 174.53-10.48 174.53-10.8 174.23-10.8L174.23-10.8Q173.38-10.8 172.48-9.98 171.58-9.15 171.58-8.38 171.58-7.6 171.93-7.2Z" fill="#000000" data-fill-palette-color="primary"></path></g></svg></g></svg></g><g transform="matrix(1,0,0,1,0,154.42249978801317)"><svg viewBox="0 0 395.52 22.821680771408797" height="22.821680771408797" width="395.52"><g transform="matrix(1,0,0,1,0,0)"><svg width="395.52" viewBox="1.2200000286102295 -33.939998626708984 775.9300537109375 44.781700134277344" height="22.821680771408797" data-palette-color="#551e19"><path d="M21.34-8.59L21.34-8.59Q21.34-11.72 19.6-13.75 17.87-15.77 14.01-15.77L14.01-15.77Q12.6-15.77 10.99-15.53L10.99-15.53Q10.6-15.28 10.6-14.55L10.6-14.55 10.6-5.47Q10.6-3.42 11.18-2.93L11.18-2.93Q11.82-2.44 14.31-2.44L14.31-2.44Q15.38-2.44 16.41-2.66 17.43-2.88 18.63-3.44 19.82-4 20.58-5.35 21.34-6.69 21.34-8.59ZM5.08-6.98L5.08-6.98 5.08-25.44Q5.08-28.37 4.74-29.44L4.74-29.44Q4.59-29.98 3.37-30.32 2.15-30.66 1.42-30.66L1.42-30.66Q1.22-30.66 1.22-31.4L1.22-31.4Q1.22-32.08 1.42-32.28L1.42-32.28Q4.64-32.13 7.91-32.13L7.91-32.13Q10.4-32.13 12.11-32.15 13.82-32.18 15.04-32.18L15.04-32.18Q16.8-32.18 18.55-31.74 20.31-31.3 21.97-30.4 23.63-29.49 24.68-27.78 25.73-26.07 25.73-23.83L25.73-23.83Q25.73-22.07 24.71-20.56 23.68-19.04 22.78-18.43 21.88-17.82 21.24-17.58L21.24-17.58Q20.85-17.43 21.04-17.29L21.04-17.29Q22.85-16.99 25.07-14.72 27.29-12.45 27.29-9.13L27.29-9.13Q27.29-4.93 23.9-2.44 20.51 0.05 14.89 0L14.89 0 7.96-0.05 1.46 0.15Q1.32 0 1.32-0.63L1.32-0.63Q1.32-1.46 1.46-1.46L1.46-1.46Q2.1-1.46 3.32-1.78 4.54-2.1 4.74-2.54L4.74-2.54Q5.08-3.56 5.08-6.98ZM16.26-18.46L16.26-18.46Q19.82-19.24 19.82-23.24L19.82-23.24Q19.82-29.83 14.21-29.83L14.21-29.83Q11.91-29.83 11.08-29.59L11.08-29.59Q10.69-29.49 10.69-29.05L10.69-29.05 10.6-24.37 10.6-18.65Q10.6-18.16 13.53-18.16L13.53-18.16Q15.33-18.16 16.26-18.46ZM39.6-19.34L39.6-19.34Q38.43-19.34 37.5-18.65 36.57-17.97 36.08-16.99 35.59-16.02 35.37-15.16 35.15-14.31 35.15-13.72L35.15-13.72Q35.15-13.38 35.45-13.38L35.45-13.38 43.36-13.38Q43.8-13.38 43.8-14.11L43.8-14.11Q43.8-15.82 42.65-17.58 41.5-19.34 39.6-19.34ZM39.94-21.58L39.94-21.58Q42.23-21.58 44.04-20.68 45.85-19.78 46.87-18.38 47.9-16.99 48.44-15.5 48.97-14.01 48.97-12.65L48.97-12.65Q48.97-11.57 48.61-11.3 48.24-11.04 47.12-11.04L47.12-11.04 35.45-11.04Q35.1-11.04 35.1-10.74L35.1-10.74Q35.1-8.98 35.74-7.32 36.37-5.66 37.91-4.44 39.45-3.22 41.6-3.22L41.6-3.22Q42.33-3.22 43.02-3.3 43.7-3.37 44.28-3.54 44.87-3.71 45.31-3.86 45.75-4 46.21-4.3 46.68-4.59 46.87-4.71 47.07-4.83 47.46-5.1 47.85-5.37 47.85-5.37L47.85-5.37Q47.95-5.32 48.09-5.08 48.24-4.83 48.24-4.59L48.24-4.59Q48.24-4.05 47.95-3.66L47.95-3.66Q47.21-2.34 45.07-1.03 42.92 0.29 40.23 0.29L40.23 0.29Q35.98 0.29 32.91-2.86 29.83-6.01 29.83-10.5L29.83-10.5Q29.83-15.43 32.69-18.51 35.54-21.58 39.94-21.58ZM59.27-2.83L59.27-2.83Q60.59-2.83 61.54-3.52 62.5-4.2 62.5-5.08L62.5-5.08 62.5-10.06Q62.15-9.91 61.05-9.57 59.96-9.23 59.37-8.98 58.78-8.74 58-8.3 57.22-7.86 56.86-7.23 56.49-6.59 56.49-5.86L56.49-5.86Q56.49-4.3 57.27-3.56 58.05-2.83 59.27-2.83ZM61.47-21.58L61.47-21.58Q64.5-21.58 66.01-20 67.52-18.41 67.52-14.55L67.52-14.55 67.52-4.93Q67.52-3.96 67.96-3.44 68.4-2.93 69.14-2.93L69.14-2.93Q69.87-2.93 70.8-3.56L70.8-3.56Q71.09-3.47 71.09-3.03L71.09-3.03Q71.09-2.05 70.8-1.56L70.8-1.56Q70.06-0.98 68.84-0.34 67.62 0.29 66.5 0.29L66.5 0.29Q65.38 0.29 64.3-0.54 63.23-1.37 62.89-2.34L62.89-2.34Q62.84-2.29 62.52-2.03 62.2-1.76 61.64-1.37 61.08-0.98 60.37-0.59 59.66-0.2 58.71 0.07 57.76 0.34 56.78 0.34L56.78 0.34Q54.34 0.34 52.8-1 51.26-2.34 51.26-4.69L51.26-4.69Q51.26-5.86 51.83-6.88 52.39-7.91 53.17-8.57 53.95-9.23 55.27-9.86 56.59-10.5 57.54-10.82 58.49-11.13 59.98-11.57 61.47-12.01 62.06-12.21L62.06-12.21Q62.5-12.4 62.5-12.99L62.5-12.99 62.5-15.67Q62.5-17.38 61.71-18.36 60.93-19.34 59.61-19.34L59.61-19.34Q58.15-19.34 57.32-18.43 56.49-17.53 56.49-15.87L56.49-15.87Q56.49-14.89 55.76-14.43 55.02-13.96 54.1-13.96L54.1-13.96Q52.29-13.96 51.56-15.14L51.56-15.14Q51.56-17.48 54.76-19.53 57.95-21.58 61.47-21.58ZM94.62-16.31L94.62-16.31 94.62-6.64Q94.62-4.3 95.01-3.22L95.01-3.22Q95.16-2.98 95.57-2.83 95.99-2.69 96.43-2.64 96.87-2.59 97.23-2.59 97.6-2.59 97.65-2.54L97.65-2.54Q97.84-2.49 97.84-2.1L97.84-2.1Q97.84-1.9 97.75-1.44 97.65-0.98 97.45-0.98L97.45-0.98Q96.77-0.98 95.72-0.81 94.67-0.63 93.69-0.46 92.72-0.29 91.84-0.1 90.96 0.1 90.42 0.2 89.89 0.29 89.89 0.29L89.89 0.29Q89.54 0.29 89.54-0.49L89.54-0.49 89.54-2.64Q89.49-2.88 89.4-2.88L89.4-2.88Q88.27-1.66 86.42-0.68 84.56 0.29 82.56 0.29L82.56 0.29Q80.9 0.29 79.66-0.54 78.41-1.37 77.7-2.69 76.99-4 76.68-5.52 76.36-7.03 76.36-8.59L76.36-8.59 76.36-14.06Q76.36-16.36 75.58-17.19L75.58-17.19Q75.14-17.68 74.46-17.92 73.77-18.16 73.28-18.21 72.8-18.26 72.8-18.36L72.8-18.36Q72.8-19.78 73.04-19.82L73.04-19.82Q74.46-19.92 77.04-20.41 79.63-20.9 80.9-21.29L80.9-21.29Q80.95-21.29 81.1-21.34 81.24-21.39 81.29-21.39L81.29-21.39Q81.54-21.39 81.66-21.04 81.78-20.7 81.78-20.51L81.78-20.51Q81.34-17.19 81.34-16.21L81.34-16.21 81.34-10.35Q81.34-6.54 82.41-4.88 83.49-3.22 85.88-3.22L85.88-3.22Q87.44-3.22 88.52-4.17 89.59-5.13 89.59-6.01L89.59-6.01 89.59-14.06Q89.59-16.36 88.81-17.19L88.81-17.19Q88.42-17.68 87.71-17.92 87-18.16 86.52-18.21 86.03-18.26 86.03-18.36L86.03-18.36Q86.03-19.78 86.32-19.82L86.32-19.82Q87.69-19.92 90.28-20.41 92.86-20.9 94.13-21.29L94.13-21.29Q94.18-21.29 94.35-21.34 94.52-21.39 94.52-21.39L94.52-21.39Q94.77-21.39 94.91-21.04 95.06-20.7 95.01-20.51L95.01-20.51Q94.62-17.19 94.62-16.31ZM103.21-6.35L103.21-18.16 100.23-18.16Q99.89-18.16 99.89-19.43L99.89-19.43Q99.89-19.78 99.94-19.87L99.94-19.87Q101.89-20.75 103.7-22.46L103.7-22.46Q104.34-23.1 105.09-23.9 105.85-24.71 106.36-25.34 106.87-25.98 106.87-25.98L106.87-25.98Q107.36-25.98 107.8-25.85 108.24-25.73 108.24-25.59L108.24-25.59 108.24-20.8Q109.51-20.8 111.78-20.78 114.05-20.75 114.2-20.75L114.2-20.75Q114.59-20.75 114.59-20.31L114.59-20.31Q114.59-19.14 114.1-18.16L114.1-18.16 108.24-18.16 108.24-6.4Q108.24-4.44 109.07-3.42 109.9-2.39 111.37-2.39L111.37-2.39Q111.86-2.39 112.39-2.51 112.93-2.64 113.27-2.78 113.61-2.93 113.91-3.08 114.2-3.22 114.25-3.22L114.25-3.22Q114.44-3.27 114.69-2.78 114.93-2.29 114.88-2.15L114.88-2.15Q114.59-1.46 112.81-0.56 111.03 0.34 109.32 0.34L109.32 0.34Q106.78 0.34 104.99-1.29 103.21-2.93 103.21-6.35L103.21-6.35ZM121.08-27.37Q120.2-28.27 120.2-29.52 120.2-30.76 121.08-31.64 121.96-32.52 123.23-32.52 124.5-32.52 125.38-31.64 126.26-30.76 126.26-29.52 126.26-28.27 125.38-27.37 124.5-26.46 123.23-26.46 121.96-26.46 121.08-27.37ZM126.16-16.31L126.16-6.93Q126.16-3.96 126.55-2.54L126.55-2.54Q126.65-2.2 127.87-1.83 129.09-1.46 129.53-1.46L129.53-1.46Q129.72-1.46 129.75-0.76 129.77-0.05 129.68 0.2L129.68 0.2Q129.33 0.15 127.06 0 124.79-0.15 123.72-0.15L123.72-0.15Q122.5-0.15 120.28 0 118.05 0.15 117.71 0.2L117.71 0.2Q117.52 0 117.52-0.73 117.52-1.46 117.71-1.46L117.71-1.46Q118.25-1.46 119.47-1.83 120.69-2.2 120.79-2.54L120.79-2.54Q121.13-4 121.13-6.1L121.13-6.1 121.13-14.06Q121.13-16.36 120.35-17.19L120.35-17.19Q119.91-17.68 119.23-17.92 118.54-18.16 118.05-18.21 117.57-18.26 117.57-18.36L117.57-18.36Q117.57-19.78 117.86-19.82L117.86-19.82Q119.23-19.92 121.81-20.41 124.4-20.9 125.67-21.29L125.67-21.29Q125.72-21.29 125.89-21.34 126.06-21.39 126.06-21.39L126.06-21.39Q126.31-21.39 126.45-21.04 126.6-20.7 126.55-20.51L126.55-20.51Q126.16-17.38 126.16-16.31L126.16-16.31ZM146.03-33.94L146.03-33.94Q148.08-33.94 149.42-33.42 150.77-32.91 151.21-32.18L151.21-32.18Q151.4-30.66 150.94-29.47 150.47-28.27 149.15-28.27L149.15-28.27Q148.32-28.27 147.67-29.08 147.01-29.88 146.27-30.69 145.54-31.49 144.57-31.49L144.57-31.49Q143.25-31.49 142.37-30.22 141.49-28.96 141.12-27.15 140.76-25.34 140.76-23.19L140.76-23.19 140.76-20.95Q140.76-20.9 140.85-20.8 140.95-20.7 141.05-20.7L141.05-20.7 146.42-20.7Q146.62-20.7 146.66-20.65 146.71-20.61 146.71-20.36L146.71-20.36Q146.71-19.29 146.13-18.12L146.13-18.12 141.05-18.12Q140.76-18.12 140.76-17.82L140.76-17.82 140.76-6.93Q140.76-4.05 141.15-2.54L141.15-2.54Q141.24-2.2 142.44-1.83 143.64-1.46 144.08-1.46L144.08-1.46Q144.22-1.46 144.25-0.76 144.27-0.05 144.17 0.2L144.17 0.2Q143.88 0.15 141.64 0 139.39-0.15 138.22-0.15L138.22-0.15Q137.05-0.15 134.9 0 132.75 0.15 132.36 0.2L132.36 0.2Q132.21 0.05 132.16-0.34 132.11-0.73 132.16-1.1 132.21-1.46 132.36-1.46L132.36-1.46Q132.9-1.46 134.07-1.83 135.24-2.2 135.34-2.54L135.34-2.54Q135.78-4.25 135.78-6.54L135.78-6.54 135.78-17.77Q135.78-18.12 135.48-18.12L135.48-18.12 132.55-18.12Q132.46-18.12 132.46-18.41L132.46-18.41Q132.46-18.95 133.14-19.82 133.82-20.7 134.7-20.7L134.7-20.7 135.48-20.7Q135.78-20.7 135.78-21L135.78-21 135.78-21.48Q135.78-26.61 138.83-30.27 141.88-33.94 146.03-33.94ZM170.49-16.31L170.49-16.31 170.49-6.64Q170.49-4.3 170.88-3.22L170.88-3.22Q171.03-2.98 171.44-2.83 171.86-2.69 172.3-2.64 172.74-2.59 173.1-2.59 173.47-2.59 173.52-2.54L173.52-2.54Q173.71-2.49 173.71-2.1L173.71-2.1Q173.71-1.9 173.62-1.44 173.52-0.98 173.32-0.98L173.32-0.98Q172.64-0.98 171.59-0.81 170.54-0.63 169.56-0.46 168.59-0.29 167.71-0.1 166.83 0.1 166.29 0.2 165.75 0.29 165.75 0.29L165.75 0.29Q165.41 0.29 165.41-0.49L165.41-0.49 165.41-2.64Q165.36-2.88 165.27-2.88L165.27-2.88Q164.14-1.66 162.29-0.68 160.43 0.29 158.43 0.29L158.43 0.29Q156.77 0.29 155.52-0.54 154.28-1.37 153.57-2.69 152.86-4 152.55-5.52 152.23-7.03 152.23-8.59L152.23-8.59 152.23-14.06Q152.23-16.36 151.45-17.19L151.45-17.19Q151.01-17.68 150.32-17.92 149.64-18.16 149.15-18.21 148.66-18.26 148.66-18.36L148.66-18.36Q148.66-19.78 148.91-19.82L148.91-19.82Q150.32-19.92 152.91-20.41 155.5-20.9 156.77-21.29L156.77-21.29Q156.82-21.29 156.96-21.34 157.11-21.39 157.16-21.39L157.16-21.39Q157.4-21.39 157.53-21.04 157.65-20.7 157.65-20.51L157.65-20.51Q157.21-17.19 157.21-16.21L157.21-16.21 157.21-10.35Q157.21-6.54 158.28-4.88 159.36-3.22 161.75-3.22L161.75-3.22Q163.31-3.22 164.39-4.17 165.46-5.13 165.46-6.01L165.46-6.01 165.46-14.06Q165.46-16.36 164.68-17.19L164.68-17.19Q164.29-17.68 163.58-17.92 162.87-18.16 162.38-18.21 161.9-18.26 161.9-18.36L161.9-18.36Q161.9-19.78 162.19-19.82L162.19-19.82Q163.56-19.92 166.14-20.41 168.73-20.9 170-21.29L170-21.29Q170.05-21.29 170.22-21.34 170.39-21.39 170.39-21.39L170.39-21.39Q170.64-21.39 170.78-21.04 170.93-20.7 170.88-20.51L170.88-20.51Q170.49-17.19 170.49-16.31ZM184.75-28.52L184.75-7.03Q184.75-4 185.09-2.64L185.09-2.64Q185.19-2.29 186.28-1.88 187.38-1.46 187.77-1.46L187.77-1.46Q187.92-1.46 187.94-0.78 187.97-0.1 187.87 0.15L187.87 0.15Q187.19 0.1 186.04 0.02 184.89-0.05 183.96-0.1 183.04-0.15 182.21-0.15L182.21-0.15Q181.28-0.15 180.35-0.1 179.42-0.05 178.3 0.02 177.18 0.1 176.44 0.15L176.44 0.15Q176.25-0.05 176.25-0.76 176.25-1.46 176.44-1.46L176.44-1.46Q176.98-1.46 178.08-1.88 179.18-2.29 179.28-2.64L179.28-2.64Q179.67-4.35 179.67-6.25L179.67-6.25 179.67-26.56Q179.67-28.42 179.37-29.88L179.37-29.88Q179.13-30.66 176.93-30.66L176.93-30.66 176.44-30.66Q176.15-30.66 176.15-31.25L176.15-31.25Q176.15-32.03 176.44-32.03L176.44-32.03Q177.96-32.18 179.33-32.42 180.69-32.67 181.6-32.91 182.5-33.15 183.16-33.37 183.82-33.59 184.21-33.74L184.21-33.74 184.55-33.89 184.65-33.89Q184.84-33.89 185.06-33.59 185.28-33.3 185.33-33.11L185.33-33.11Q184.75-31.25 184.75-28.52L184.75-28.52ZM207.45-32.13L207.45-32.13Q207.45-32.13 215.89-32.13L215.89-32.13Q223.85-32.13 228.32-27.44 232.79-22.75 232.79-16.41L232.79-16.41Q232.79-9.38 228.27-4.61 223.75 0.15 215.84 0.15L215.84 0.15Q214.82 0.15 211.82 0.05 208.81-0.05 207.49-0.05L207.49-0.05 201 0.15Q200.85 0 200.85-0.63L200.85-0.63Q200.85-1.46 201-1.46L201-1.46Q201.64-1.46 202.86-1.78 204.08-2.1 204.27-2.54L204.27-2.54Q204.61-3.56 204.61-6.98L204.61-6.98 204.61-25.44Q204.61-28.37 204.27-29.44L204.27-29.44Q204.13-29.98 202.9-30.32 201.68-30.66 200.95-30.66L200.95-30.66Q200.76-30.66 200.76-31.4L200.76-31.4Q200.76-32.08 200.95-32.28L200.95-32.28Q204.17-32.13 207.45-32.13ZM210.13-25.88L210.13-25.88 210.13-6.74Q210.13-4 210.67-3.13L210.67-3.13Q211.45-2.34 216.63-2.34L216.63-2.34Q226.54-2.34 226.54-16.6L226.54-16.6Q226.54-22.07 223.88-25.88 221.22-29.69 216.28-29.69L216.28-29.69 216.04-29.69Q211.35-29.69 210.77-28.91L210.77-28.91Q210.13-28.03 210.13-25.88ZM249.73-21.58L249.73-21.58Q252.41-21.58 253.73-19.97L253.73-19.97Q253.73-15.82 251.39-15.82L251.39-15.82Q250.51-15.82 249.48-16.8 248.46-17.77 247.38-17.77L247.38-17.77Q245.87-17.77 245.02-16.24 244.16-14.7 244.16-13.04L244.16-13.04 244.16-6.93Q244.16-3.96 244.5-2.54L244.5-2.54Q244.6-2.2 245.8-1.83 246.99-1.46 247.43-1.46L247.43-1.46Q247.58-1.46 247.6-0.76 247.63-0.05 247.58 0.2L247.58 0.2Q247.19 0.15 244.99 0 242.79-0.15 241.67-0.15L241.67-0.15Q240.5-0.15 238.28 0 236.06 0.15 235.67 0.2L235.67 0.2Q235.47 0 235.47-0.73 235.47-1.46 235.67-1.46L235.67-1.46Q236.25-1.46 237.45-1.83 238.64-2.2 238.74-2.54L238.74-2.54Q239.08-4 239.08-6.1L239.08-6.1 239.08-14.06Q239.08-16.36 238.3-17.19L238.3-17.19Q237.91-17.68 237.2-17.92 236.5-18.16 236.03-18.21 235.57-18.26 235.57-18.36L235.57-18.36Q235.57-19.78 235.81-19.82L235.81-19.82Q238.06-20.02 243.67-21.29L243.67-21.29Q243.67-21.29 243.84-21.34 244.02-21.39 244.06-21.39L244.06-21.39Q244.26-21.39 244.41-21.04 244.55-20.7 244.53-20.48 244.5-20.26 244.45-19.8 244.41-19.34 244.33-18.82 244.26-18.31 244.26-18.16L244.26-18.16Q245.14-19.48 246.65-20.53 248.17-21.58 249.73-21.58ZM266.08-19.34L266.08-19.34Q264.91-19.34 263.98-18.65 263.06-17.97 262.57-16.99 262.08-16.02 261.86-15.16 261.64-14.31 261.64-13.72L261.64-13.72Q261.64-13.38 261.93-13.38L261.93-13.38 269.84-13.38Q270.28-13.38 270.28-14.11L270.28-14.11Q270.28-15.82 269.14-17.58 267.99-19.34 266.08-19.34ZM266.43-21.58L266.43-21.58Q268.72-21.58 270.53-20.68 272.33-19.78 273.36-18.38 274.38-16.99 274.92-15.5 275.46-14.01 275.46-12.65L275.46-12.65Q275.46-11.57 275.09-11.3 274.73-11.04 273.6-11.04L273.6-11.04 261.93-11.04Q261.59-11.04 261.59-10.74L261.59-10.74Q261.59-8.98 262.23-7.32 262.86-5.66 264.4-4.44 265.94-3.22 268.09-3.22L268.09-3.22Q268.82-3.22 269.5-3.3 270.18-3.37 270.77-3.54 271.36-3.71 271.8-3.86 272.24-4 272.7-4.3 273.16-4.59 273.36-4.71 273.55-4.83 273.94-5.1 274.34-5.37 274.34-5.37L274.34-5.37Q274.43-5.32 274.58-5.08 274.73-4.83 274.73-4.59L274.73-4.59Q274.73-4.05 274.43-3.66L274.43-3.66Q273.7-2.34 271.55-1.03 269.4 0.29 266.72 0.29L266.72 0.29Q262.47 0.29 259.39-2.86 256.32-6.01 256.32-10.5L256.32-10.5Q256.32-15.43 259.17-18.51 262.03-21.58 266.43-21.58ZM285.66-21.63L285.66-21.63Q288.4-21.63 291.32-20.8L291.32-20.8Q291.81-18.6 291.86-15.33L291.86-15.33Q291.86-14.94 291.23-14.94L291.23-14.94Q290.15-14.94 290.06-15.33L290.06-15.33Q289.71-17.04 288.61-18.24 287.52-19.43 285.66-19.43L285.66-19.43Q284.24-19.43 283.44-18.8 282.63-18.16 282.63-16.99L282.63-16.99Q282.63-16.31 282.9-15.75 283.17-15.19 283.78-14.7 284.39-14.21 284.86-13.92 285.32-13.62 286.25-13.13L286.25-13.13Q286.59-12.94 286.74-12.89L286.74-12.89Q286.83-12.84 287.47-12.5 288.1-12.16 288.27-12.06 288.44-11.96 289.05-11.6 289.66-11.23 289.91-11.04 290.15-10.84 290.67-10.45 291.18-10.06 291.4-9.77 291.62-9.47 291.98-9.01 292.35-8.54 292.5-8.13 292.64-7.71 292.77-7.2 292.89-6.69 292.89-6.15L292.89-6.15Q292.89-3.08 290.52-1.29 288.15 0.49 284.78 0.49L284.78 0.49Q281.75 0.49 278.48-0.88L278.48-0.88Q278.24-1.71 277.99-3.59 277.75-5.47 277.75-6.4L277.75-6.4Q278.04-6.64 278.43-6.64L278.43-6.64Q279.56-6.64 279.61-6.25L279.61-6.25Q280-4.2 281.53-2.95 283.07-1.71 284.88-1.71L284.88-1.71Q286.25-1.71 287.13-2.39 288-3.08 288-4.39L288-4.39Q288-4.88 287.88-5.3 287.76-5.71 287.42-6.13 287.08-6.54 286.86-6.81 286.64-7.08 285.98-7.47 285.32-7.86 285-8.03 284.68-8.2 283.78-8.67 282.88-9.13 282.54-9.33L282.54-9.33Q280.29-10.5 279.07-11.94 277.85-13.38 277.85-15.43L277.85-15.43Q277.85-18.41 280.19-20.02 282.54-21.63 285.66-21.63ZM303.53-21.63L303.53-21.63Q306.26-21.63 309.19-20.8L309.19-20.8Q309.68-18.6 309.73-15.33L309.73-15.33Q309.73-14.94 309.1-14.94L309.1-14.94Q308.02-14.94 307.92-15.33L307.92-15.33Q307.58-17.04 306.48-18.24 305.38-19.43 303.53-19.43L303.53-19.43Q302.11-19.43 301.31-18.8 300.5-18.16 300.5-16.99L300.5-16.99Q300.5-16.31 300.77-15.75 301.04-15.19 301.65-14.7 302.26-14.21 302.72-13.92 303.19-13.62 304.12-13.13L304.12-13.13Q304.46-12.94 304.6-12.89L304.6-12.89Q304.7-12.84 305.34-12.5 305.97-12.16 306.14-12.06 306.31-11.96 306.92-11.6 307.53-11.23 307.78-11.04 308.02-10.84 308.53-10.45 309.05-10.06 309.27-9.77 309.49-9.47 309.85-9.01 310.22-8.54 310.37-8.13 310.51-7.71 310.63-7.2 310.76-6.69 310.76-6.15L310.76-6.15Q310.76-3.08 308.39-1.29 306.02 0.49 302.65 0.49L302.65 0.49Q299.62 0.49 296.35-0.88L296.35-0.88Q296.11-1.71 295.86-3.59 295.62-5.47 295.62-6.4L295.62-6.4Q295.91-6.64 296.3-6.64L296.3-6.64Q297.43-6.64 297.47-6.25L297.47-6.25Q297.87-4.2 299.4-2.95 300.94-1.71 302.75-1.71L302.75-1.71Q304.12-1.71 304.99-2.39 305.87-3.08 305.87-4.39L305.87-4.39Q305.87-4.88 305.75-5.3 305.63-5.71 305.29-6.13 304.95-6.54 304.73-6.81 304.51-7.08 303.85-7.47 303.19-7.86 302.87-8.03 302.55-8.2 301.65-8.67 300.75-9.13 300.4-9.33L300.4-9.33Q298.16-10.5 296.94-11.94 295.72-13.38 295.72-15.43L295.72-15.43Q295.72-18.41 298.06-20.02 300.4-21.63 303.53-21.63ZM319.13-5.03Q320.08-4.05 320.08-2.73 320.08-1.42 319.13-0.42 318.18 0.59 316.86 0.59L316.86 0.59Q315.49 0.59 314.51-0.42 313.54-1.42 313.54-2.73 313.54-4.05 314.51-5.03 315.49-6.01 316.86-6.01L316.86-6.01Q318.18-6.01 319.13-5.03ZM328.45-5.03Q329.4-4.05 329.4-2.73 329.4-1.42 328.45-0.42 327.5 0.59 326.18 0.59L326.18 0.59Q324.81 0.59 323.84-0.42 322.86-1.42 322.86-2.73 322.86-4.05 323.84-5.03 324.81-6.01 326.18-6.01L326.18-6.01Q327.5-6.01 328.45-5.03ZM337.77-5.03Q338.73-4.05 338.73-2.73 338.73-1.42 337.77-0.42 336.82 0.59 335.5 0.59L335.5 0.59Q334.14 0.59 333.16-0.42 332.18-1.42 332.18-2.73 332.18-4.05 333.16-5.03 334.14-6.01 335.5-6.01L335.5-6.01Q336.82-6.01 337.77-5.03ZM361.06-32.15Q364.36-32.03 366.46-32.03 368.56-32.03 371.88-32.15 375.2-32.28 377.2-32.32L377.2-32.32Q378.42-32.32 380.57-32.81L380.57-32.81 381.5-25.34Q381.15-25 380.18-25L380.18-25Q379.79-25 379.69-25.24L379.69-25.24Q379.01-27.93 377.88-28.88 376.76-29.83 374.37-29.83L374.37-29.83Q369.83-29.83 369.63-29L369.63-29Q369.19-27.59 369.19-24.41L369.19-24.41 369.19-6.79Q369.19-4.15 369.63-2.54L369.63-2.54Q369.68-2.2 370.95-1.83 372.22-1.46 372.66-1.46L372.66-1.46Q372.85-1.46 372.85-0.59L372.85-0.59Q372.85-0.1 372.76 0.2L372.76 0.2Q372.12 0.15 370.88 0.05 369.63-0.05 368.58-0.1 367.53-0.15 366.55-0.15L366.55-0.15Q365.24-0.15 362.92 0 360.6 0.15 360.06 0.2L360.06 0.2Q359.86 0 359.86-0.59L359.86-0.59Q359.86-1.46 360.06-1.46L360.06-1.46Q360.65-1.46 361.89-1.81 363.14-2.15 363.28-2.54L363.28-2.54Q363.67-3.86 363.67-6.59L363.67-6.59 363.67-24.27Q363.67-28.32 363.23-29L363.23-29Q362.84-29.83 358.6-29.83L358.6-29.83Q356.2-29.83 355.08-28.88 353.96-27.93 353.22-25.29L353.22-25.29Q353.18-25 352.74-25L352.74-25Q351.81-25 351.47-25.39L351.47-25.39 352.39-32.81Q354.54-32.32 355.76-32.32L355.76-32.32Q357.77-32.28 361.06-32.15ZM400-21.58L400-21.58Q406.25-21.58 406.25-11.96L406.25-11.96 406.25-6.93Q406.25-3.96 406.64-2.54L406.64-2.54Q406.69-2.2 407.93-1.83 409.18-1.46 409.62-1.46L409.62-1.46Q409.76-1.46 409.79-0.76 409.81-0.05 409.76 0.2L409.76 0.2Q409.42 0.15 407.15 0 404.88-0.15 403.81-0.15L403.81-0.15Q402.59-0.15 400.51 0 398.44 0.15 397.95 0.2L397.95 0.2Q397.8 0 397.8-0.73 397.8-1.46 397.95-1.46L397.95-1.46Q398.53-1.46 399.63-1.83 400.73-2.2 400.88-2.54L400.88-2.54Q401.17-4 401.17-6.1L401.17-6.1 401.17-10.89Q401.17-14.94 400.07-16.48 398.97-18.02 396.58-18.02L396.58-18.02Q395.12-18.02 393.9-17.19 392.67-16.36 392.67-15.33L392.67-15.33 392.67-6.93Q392.67-3.96 393.07-2.54L393.07-2.54Q393.16-2.2 394.36-1.83 395.56-1.46 395.99-1.46L395.99-1.46Q396.14-1.46 396.17-0.76 396.19-0.05 396.09 0.2L396.09 0.2Q395.7 0.15 393.53 0 391.36-0.15 390.23-0.15L390.23-0.15Q389.06-0.15 386.84 0 384.62 0.15 384.23 0.2L384.23 0.2Q384.03 0 384.03-0.73 384.03-1.46 384.23-1.46L384.23-1.46Q384.81-1.46 386.01-1.83 387.21-2.2 387.3-2.54L387.3-2.54Q387.65-4 387.65-6.05L387.65-6.05 387.65-26.37Q387.65-28.32 387.4-29.69L387.4-29.69Q387.16-30.47 384.86-30.47L384.86-30.47 384.42-30.47Q384.13-30.47 384.13-31.25L384.13-31.25Q384.13-32.03 384.42-32.03L384.42-32.03Q385.94-32.18 387.3-32.42 388.67-32.67 389.57-32.91 390.48-33.15 391.14-33.4 391.8-33.64 392.16-33.76 392.53-33.89 392.53-33.89L392.53-33.89 392.63-33.89Q392.82-33.89 393.02-33.62 393.21-33.35 393.26-33.11L393.26-33.11Q392.67-31.2 392.67-28.52L392.67-28.52 392.67-18.65Q392.67-18.36 392.87-18.36L392.87-18.36Q392.92-18.36 393.07-18.51L393.07-18.51Q394.09-19.68 396.07-20.63 398.05-21.58 400-21.58ZM421.92-19.34L421.92-19.34Q420.75-19.34 419.82-18.65 418.89-17.97 418.4-16.99 417.92-16.02 417.7-15.16 417.48-14.31 417.48-13.72L417.48-13.72Q417.48-13.38 417.77-13.38L417.77-13.38 425.68-13.38Q426.12-13.38 426.12-14.11L426.12-14.11Q426.12-15.82 424.97-17.58 423.82-19.34 421.92-19.34ZM422.26-21.58L422.26-21.58Q424.56-21.58 426.36-20.68 428.17-19.78 429.2-18.38 430.22-16.99 430.76-15.5 431.3-14.01 431.3-12.65L431.3-12.65Q431.3-11.57 430.93-11.3 430.56-11.04 429.44-11.04L429.44-11.04 417.77-11.04Q417.43-11.04 417.43-10.74L417.43-10.74Q417.43-8.98 418.06-7.32 418.7-5.66 420.24-4.44 421.77-3.22 423.92-3.22L423.92-3.22Q424.65-3.22 425.34-3.3 426.02-3.37 426.61-3.54 427.19-3.71 427.63-3.86 428.07-4 428.54-4.3 429-4.59 429.2-4.71 429.39-4.83 429.78-5.1 430.17-5.37 430.17-5.37L430.17-5.37Q430.27-5.32 430.42-5.08 430.56-4.83 430.56-4.59L430.56-4.59Q430.56-4.05 430.27-3.66L430.27-3.66Q429.54-2.34 427.39-1.03 425.24 0.29 422.55 0.29L422.55 0.29Q418.31 0.29 415.23-2.86 412.15-6.01 412.15-10.5L412.15-10.5Q412.15-15.43 415.01-18.51 417.87-21.58 422.26-21.58ZM451.11-32.03L451.11-32.03Q451.36-32.03 455.9-32.32L455.9-32.32Q456.34-30.96 457.9-27.27 459.46-23.58 461.73-18.29 464.01-12.99 465.37-9.57L465.37-9.57Q465.37-9.47 465.52-9.47 465.67-9.47 465.67-9.62L465.67-9.62Q469.96-19.92 472.5-26.56L472.5-26.56 474.26-32.23Q475.72-32.08 478.26-32.08L478.26-32.08Q480.17-32.08 484.07-32.32L484.07-32.32Q484.22-32.13 484.22-31.54L484.22-31.54Q484.22-30.71 484.02-30.71L484.02-30.71 483.93-30.71Q482.61-30.71 481.53-29.93L481.53-29.93Q480.8-29.39 480.9-27.29L480.9-27.29Q481.09-22.95 481.58-7.13L481.58-7.13Q481.63-4.49 482.36-2.64L482.36-2.64Q482.56-2.2 483.73-1.83 484.9-1.46 485.39-1.46L485.39-1.46Q485.59-1.46 485.59-0.59L485.59-0.59Q485.59-0.15 485.49 0.15L485.49 0.15Q479.63-0.15 479.48-0.15L479.48-0.15Q478.51-0.15 477.43-0.1 476.36-0.05 475.06 0.02 473.77 0.1 472.99 0.15L472.99 0.15Q472.79-0.05 472.79-0.59L472.79-0.59Q472.79-1.46 472.99-1.46L472.99-1.46Q473.53-1.46 474.55-1.78 475.58-2.1 475.92-2.49L475.92-2.49Q476.41-3.13 476.41-4.2L476.41-4.2 476.41-6.93 475.92-21.78Q475.72-24.8 475.33-24.8L475.33-24.8Q475.19-24.8 475.09-24.51L475.09-24.51 465.76-1.76Q464.93 0.1 463.91 0.1L463.91 0.1Q463.71 0.1 463.42 0L463.42 0 452.48-26.27Q452.14-14.11 451.7-4.49L451.7-4.49Q451.7-3.42 451.85-2.98L451.85-2.98Q452.09-2.44 453.8-1.95 455.51-1.46 456.09-1.46L456.09-1.46Q456.29-1.46 456.29-0.59L456.29-0.59Q456.29-0.15 456.19 0.15L456.19 0.15Q450.33-0.15 450.04-0.15L450.04-0.15Q448.72-0.15 446.55 0 444.38 0.15 443.89 0.15L443.89 0.15Q443.69-0.05 443.69-0.63L443.69-0.63Q443.69-1.46 443.89-1.46L443.89-1.46Q444.67-1.46 446.33-1.95 447.99-2.44 448.23-3.22L448.23-3.22Q448.67-4.1 448.77-6.49L448.77-6.49Q448.87-10.21 449.04-15.26 449.21-20.31 449.33-23.88 449.45-27.44 449.45-28.32L449.45-28.32Q449.45-29.25 449.31-29.69L449.31-29.69Q449.16-30.08 447.67-30.42 446.18-30.76 445.55-30.76L445.55-30.76Q445.35-30.76 445.35-31.59L445.35-31.59Q445.35-32.13 445.55-32.32L445.55-32.32Q446.28-32.28 448.06-32.15 449.84-32.03 451.11-32.03ZM497.99-19.34L497.99-19.34Q496.82-19.34 495.89-18.65 494.96-17.97 494.47-16.99 493.98-16.02 493.76-15.16 493.54-14.31 493.54-13.72L493.54-13.72Q493.54-13.38 493.84-13.38L493.84-13.38 501.75-13.38Q502.19-13.38 502.19-14.11L502.19-14.11Q502.19-15.82 501.04-17.58 499.89-19.34 497.99-19.34ZM498.33-21.58L498.33-21.58Q500.62-21.58 502.43-20.68 504.24-19.78 505.26-18.38 506.29-16.99 506.82-15.5 507.36-14.01 507.36-12.65L507.36-12.65Q507.36-11.57 507-11.3 506.63-11.04 505.51-11.04L505.51-11.04 493.84-11.04Q493.49-11.04 493.49-10.74L493.49-10.74Q493.49-8.98 494.13-7.32 494.76-5.66 496.3-4.44 497.84-3.22 499.99-3.22L499.99-3.22Q500.72-3.22 501.4-3.3 502.09-3.37 502.67-3.54 503.26-3.71 503.7-3.86 504.14-4 504.6-4.3 505.07-4.59 505.26-4.71 505.46-4.83 505.85-5.1 506.24-5.37 506.24-5.37L506.24-5.37Q506.34-5.32 506.48-5.08 506.63-4.83 506.63-4.59L506.63-4.59Q506.63-4.05 506.34-3.66L506.34-3.66Q505.6-2.34 503.46-1.03 501.31 0.29 498.62 0.29L498.62 0.29Q494.37 0.29 491.3-2.86 488.22-6.01 488.22-10.5L488.22-10.5Q488.22-15.43 491.08-18.51 493.93-21.58 498.33-21.58ZM517.66-2.83L517.66-2.83Q518.98-2.83 519.93-3.52 520.88-4.2 520.88-5.08L520.88-5.08 520.88-10.06Q520.54-9.91 519.44-9.57 518.35-9.23 517.76-8.98 517.17-8.74 516.39-8.3 515.61-7.86 515.25-7.23 514.88-6.59 514.88-5.86L514.88-5.86Q514.88-4.3 515.66-3.56 516.44-2.83 517.66-2.83ZM519.86-21.58L519.86-21.58Q522.89-21.58 524.4-20 525.91-18.41 525.91-14.55L525.91-14.55 525.91-4.93Q525.91-3.96 526.35-3.44 526.79-2.93 527.53-2.93L527.53-2.93Q528.26-2.93 529.19-3.56L529.19-3.56Q529.48-3.47 529.48-3.03L529.48-3.03Q529.48-2.05 529.19-1.56L529.19-1.56Q528.45-0.98 527.23-0.34 526.01 0.29 524.89 0.29L524.89 0.29Q523.77 0.29 522.69-0.54 521.62-1.37 521.28-2.34L521.28-2.34Q521.23-2.29 520.91-2.03 520.59-1.76 520.03-1.37 519.47-0.98 518.76-0.59 518.05-0.2 517.1 0.07 516.15 0.34 515.17 0.34L515.17 0.34Q512.73 0.34 511.19-1 509.65-2.34 509.65-4.69L509.65-4.69Q509.65-5.86 510.22-6.88 510.78-7.91 511.56-8.57 512.34-9.23 513.66-9.86 514.98-10.5 515.93-10.82 516.88-11.13 518.37-11.57 519.86-12.01 520.45-12.21L520.45-12.21Q520.88-12.4 520.88-12.99L520.88-12.99 520.88-15.67Q520.88-17.38 520.1-18.36 519.32-19.34 518-19.34L518-19.34Q516.54-19.34 515.71-18.43 514.88-17.53 514.88-15.87L514.88-15.87Q514.88-14.89 514.15-14.43 513.41-13.96 512.49-13.96L512.49-13.96Q510.68-13.96 509.95-15.14L509.95-15.14Q509.95-17.48 513.15-19.53 516.34-21.58 519.86-21.58ZM547.64-21.58L547.64-21.58Q553.94-21.58 553.94-11.57L553.94-11.57 553.94-6.93Q553.94-3.96 554.28-2.54L554.28-2.54Q554.38-2.2 555.62-1.83 556.87-1.46 557.31-1.46L557.31-1.46Q557.45-1.46 557.48-0.76 557.5-0.05 557.41 0.2L557.41 0.2Q557.11 0.15 554.84 0 552.57-0.15 551.45-0.15L551.45-0.15Q550.28-0.15 548.2 0 546.13 0.15 545.69 0.2L545.69 0.2Q545.49 0 545.49-0.73 545.49-1.46 545.69-1.46L545.69-1.46Q546.22-1.46 547.32-1.83 548.42-2.2 548.52-2.54L548.52-2.54Q548.91-4 548.91-6.1L548.91-6.1 548.91-10.74Q548.91-14.79 547.81-16.41 546.71-18.02 544.32-18.02L544.32-18.02Q542.76-18.02 541.59-17.16 540.41-16.31 540.41-15.33L540.41-15.33 540.41-6.93Q540.41-3.96 540.76-2.54L540.76-2.54Q540.85-2.2 542.05-1.83 543.25-1.46 543.64-1.46L543.64-1.46Q543.83-1.46 543.86-0.76 543.88-0.05 543.78 0.2L543.78 0.2Q543.39 0.15 541.22 0 539.05-0.15 537.92-0.15L537.92-0.15Q536.75-0.15 534.53 0 532.31 0.15 531.92 0.2L531.92 0.2Q531.72 0 531.72-0.73 531.72-1.46 531.92-1.46L531.92-1.46Q532.5-1.46 533.7-1.83 534.9-2.2 534.99-2.54L534.99-2.54Q535.34-4 535.34-6.1L535.34-6.1 535.34-14.06Q535.34-16.36 534.55-17.19L534.55-17.19Q534.16-17.68 533.46-17.92 532.75-18.16 532.28-18.21 531.82-18.26 531.82-18.36L531.82-18.36Q531.82-19.78 532.06-19.82L532.06-19.82Q534.31-20.02 539.93-21.29L539.93-21.29Q539.97-21.34 540.05-21.36 540.12-21.39 540.19-21.39 540.27-21.39 540.32-21.39L540.32-21.39Q540.51-21.39 540.66-21.04 540.8-20.7 540.8-20.51L540.8-20.51Q540.61-19.14 540.61-18.75L540.61-18.75Q540.61-18.55 540.66-18.51L540.66-18.51Q540.71-18.51 540.9-18.65L540.9-18.65Q542.07-19.82 543.9-20.7 545.74-21.58 547.64-21.58ZM563.8-27.37Q562.92-28.27 562.92-29.52 562.92-30.76 563.8-31.64 564.68-32.52 565.95-32.52 567.22-32.52 568.1-31.64 568.98-30.76 568.98-29.52 568.98-28.27 568.1-27.37 567.22-26.46 565.95-26.46 564.68-26.46 563.8-27.37ZM568.88-16.31L568.88-6.93Q568.88-3.96 569.27-2.54L569.27-2.54Q569.37-2.2 570.59-1.83 571.81-1.46 572.25-1.46L572.25-1.46Q572.44-1.46 572.47-0.76 572.49-0.05 572.39 0.2L572.39 0.2Q572.05 0.15 569.78 0 567.51-0.15 566.44-0.15L566.44-0.15Q565.22-0.15 562.99 0 560.77 0.15 560.43 0.2L560.43 0.2Q560.24 0 560.24-0.73 560.24-1.46 560.43-1.46L560.43-1.46Q560.97-1.46 562.19-1.83 563.41-2.2 563.51-2.54L563.51-2.54Q563.85-4 563.85-6.1L563.85-6.1 563.85-14.06Q563.85-16.36 563.07-17.19L563.07-17.19Q562.63-17.68 561.94-17.92 561.26-18.16 560.77-18.21 560.28-18.26 560.28-18.36L560.28-18.36Q560.28-19.78 560.58-19.82L560.58-19.82Q561.94-19.92 564.53-20.41 567.12-20.9 568.39-21.29L568.39-21.29Q568.44-21.29 568.61-21.34 568.78-21.39 568.78-21.39L568.78-21.39Q569.02-21.39 569.17-21.04 569.32-20.7 569.27-20.51L569.27-20.51Q568.88-17.38 568.88-16.31L568.88-16.31ZM590.8-21.58L590.8-21.58Q597.1-21.58 597.1-11.57L597.1-11.57 597.1-6.93Q597.1-3.96 597.44-2.54L597.44-2.54Q597.54-2.2 598.78-1.83 600.03-1.46 600.47-1.46L600.47-1.46Q600.61-1.46 600.64-0.76 600.66-0.05 600.56 0.2L600.56 0.2Q600.27 0.15 598 0 595.73-0.15 594.61-0.15L594.61-0.15Q593.44-0.15 591.36 0 589.29 0.15 588.85 0.2L588.85 0.2Q588.65 0 588.65-0.73 588.65-1.46 588.85-1.46L588.85-1.46Q589.38-1.46 590.48-1.83 591.58-2.2 591.68-2.54L591.68-2.54Q592.07-4 592.07-6.1L592.07-6.1 592.07-10.74Q592.07-14.79 590.97-16.41 589.87-18.02 587.48-18.02L587.48-18.02Q585.92-18.02 584.74-17.16 583.57-16.31 583.57-15.33L583.57-15.33 583.57-6.93Q583.57-3.96 583.91-2.54L583.91-2.54Q584.01-2.2 585.21-1.83 586.4-1.46 586.8-1.46L586.8-1.46Q586.99-1.46 587.01-0.76 587.04-0.05 586.94 0.2L586.94 0.2Q586.55 0.15 584.38 0 582.21-0.15 581.08-0.15L581.08-0.15Q579.91-0.15 577.69 0 575.47 0.15 575.08 0.2L575.08 0.2Q574.88 0 574.88-0.73 574.88-1.46 575.08-1.46L575.08-1.46Q575.66-1.46 576.86-1.83 578.05-2.2 578.15-2.54L578.15-2.54Q578.49-4 578.49-6.1L578.49-6.1 578.49-14.06Q578.49-16.36 577.71-17.19L577.71-17.19Q577.32-17.68 576.61-17.92 575.91-18.16 575.44-18.21 574.98-18.26 574.98-18.36L574.98-18.36Q574.98-19.78 575.22-19.82L575.22-19.82Q577.47-20.02 583.08-21.29L583.08-21.29Q583.13-21.34 583.21-21.36 583.28-21.39 583.35-21.39 583.43-21.39 583.47-21.39L583.47-21.39Q583.67-21.39 583.82-21.04 583.96-20.7 583.96-20.51L583.96-20.51Q583.77-19.14 583.77-18.75L583.77-18.75Q583.77-18.55 583.82-18.51L583.82-18.51Q583.87-18.51 584.06-18.65L584.06-18.65Q585.23-19.82 587.06-20.7 588.89-21.58 590.8-21.58ZM619.41 4.05L619.41 4.05Q619.41 2.34 616.94 1.78 614.48 1.22 610.33 1.22L610.33 1.22Q610.23 1.22 610.08 1.27L610.08 1.27Q609.99 1.32 609.84 1.42L609.84 1.42Q609.2 1.66 608.86 1.83 608.52 2 608.08 2.37 607.64 2.73 607.42 3.22 607.2 3.71 607.2 4.39L607.2 4.39Q607.2 6.15 609.06 7.32 610.91 8.5 613.21 8.5L613.21 8.5Q615.94 8.5 617.68 7.23 619.41 5.96 619.41 4.05ZM608.96-14.4L608.96-14.4Q608.96-12.01 609.94-10.38 610.91-8.74 612.67-8.74L612.67-8.74Q614.48-8.74 615.33-10.13 616.19-11.52 616.19-13.57L616.19-13.57Q616.19-16.16 615.21-17.77 614.23-19.38 612.38-19.38L612.38-19.38Q610.62-19.38 609.79-17.87 608.96-16.36 608.96-14.4ZM612.67-21.48L612.67-21.48Q614.43-21.48 616.72-20.85 619.02-20.21 620.63-20.21L620.63-20.21 623.41-20.21Q623.51-20.21 623.76-19.58 624-18.95 624-18.6L624-18.6Q624-17.92 623.71-17.92L623.71-17.92 620.53-17.92Q620.34-17.92 620.34-17.77L620.34-17.77Q620.34-17.72 620.78-16.5 621.22-15.28 621.22-14.16L621.22-14.16Q621.22-11.28 618.8-8.96 616.38-6.64 612.77-6.64L612.77-6.64Q611.01-6.64 609.74-6.84L609.74-6.84Q609.16-6.59 608.67-5.93 608.18-5.27 608.18-4.74L608.18-4.74Q608.18-4.25 608.64-3.91 609.11-3.56 610.08-3.42 611.06-3.27 611.74-3.22 612.43-3.17 613.7-3.13L613.7-3.13Q614.23-3.13 614.43-3.13L614.43-3.13Q619.31-2.98 621.58-1.78 623.85-0.59 623.85 1.81L623.85 1.81Q623.9 5.47 620.34 8.15 616.77 10.84 612.09 10.84L612.09 10.84Q608.52 10.89 605.86 9.47 603.2 8.06 603.2 5.47L603.2 5.47Q603.2 4.05 604.59 2.73 605.98 1.42 607.59 0.88L607.59 0.88Q606.32 0.49 605.25-0.61 604.18-1.71 604.18-3.17L604.18-3.17Q604.18-5.27 607.79-7.52L607.79-7.52Q606.37-8.15 605.15-10.03 603.93-11.91 603.93-14.01L603.93-14.01Q603.93-17.48 606.47-19.48 609.01-21.48 612.67-21.48ZM651.63-30.18L651.63-30.18Q647.43-30.18 645.21-26.34 642.99-22.51 642.99-17.09L642.99-17.09Q642.99-13.43 643.99-10.11 644.99-6.79 647.38-4.37 649.78-1.95 653.15-1.95L653.15-1.95Q657.3-1.95 659.57-5.83 661.84-9.72 661.84-15.09L661.84-15.09Q661.84-18.85 660.86-22.14 659.88-25.44 657.49-27.81 655.1-30.18 651.63-30.18ZM641.33-4.35Q636.74-9.18 636.74-16.02 636.74-22.85 641.33-27.71 645.92-32.57 652.36-32.57 658.81-32.57 663.42-27.71 668.04-22.85 668.04-16.02 668.04-9.18 663.42-4.35 658.81 0.49 652.36 0.49 645.92 0.49 641.33-4.35ZM684.59-33.94L684.59-33.94Q686.64-33.94 687.98-33.42 689.32-32.91 689.76-32.18L689.76-32.18Q689.96-30.66 689.5-29.47 689.03-28.27 687.71-28.27L687.71-28.27Q686.88-28.27 686.22-29.08 685.56-29.88 684.83-30.69 684.1-31.49 683.12-31.49L683.12-31.49Q681.8-31.49 680.93-30.22 680.05-28.96 679.68-27.15 679.31-25.34 679.31-23.19L679.31-23.19 679.31-20.95Q679.31-20.9 679.41-20.8 679.51-20.7 679.61-20.7L679.61-20.7 684.98-20.7Q685.17-20.7 685.22-20.65 685.27-20.61 685.27-20.36L685.27-20.36Q685.27-19.29 684.69-18.12L684.69-18.12 679.61-18.12Q679.31-18.12 679.31-17.82L679.31-17.82 679.31-6.93Q679.31-4.05 679.71-2.54L679.71-2.54Q679.8-2.2 681-1.83 682.2-1.46 682.63-1.46L682.63-1.46Q682.78-1.46 682.81-0.76 682.83-0.05 682.73 0.2L682.73 0.2Q682.44 0.15 680.19 0 677.95-0.15 676.78-0.15L676.78-0.15Q675.6-0.15 673.46 0 671.31 0.15 670.92 0.2L670.92 0.2Q670.77 0.05 670.72-0.34 670.67-0.73 670.72-1.1 670.77-1.46 670.92-1.46L670.92-1.46Q671.45-1.46 672.63-1.83 673.8-2.2 673.89-2.54L673.89-2.54Q674.33-4.25 674.33-6.54L674.33-6.54 674.33-17.77Q674.33-18.12 674.04-18.12L674.04-18.12 671.11-18.12Q671.01-18.12 671.01-18.41L671.01-18.41Q671.01-18.95 671.7-19.82 672.38-20.7 673.26-20.7L673.26-20.7 674.04-20.7Q674.33-20.7 674.33-21L674.33-21 674.33-21.48Q674.33-26.61 677.39-30.27 680.44-33.94 684.59-33.94ZM707.19-25.29L707.19-25.29 707.19-6.93Q707.19-4.54 707.63-3.03L707.63-3.03Q707.87-2.39 710.95-2.39L710.95-2.39 712.76-2.39Q716.57-2.39 718.57-3.42L718.57-3.42Q719.35-3.81 720.33-5.13 721.3-6.45 721.84-8.11L721.84-8.11Q721.89-8.4 722.52-8.4L722.52-8.4Q723.6-8.4 723.89-8.11L723.89-8.11Q723.74-7.67 723.18-6.1 722.62-4.54 722.33-3.74 722.03-2.93 721.69-1.76 721.35-0.59 721.25 0.15L721.25 0.15Q719.3 0.15 713.17 0 707.04-0.15 704.55-0.05L704.55-0.05 698.06 0.15Q697.91 0 697.91-0.63L697.91-0.63Q697.91-1.46 698.06-1.46L698.06-1.46Q698.69-1.46 699.91-1.78 701.14-2.1 701.33-2.54L701.33-2.54Q701.67-3.56 701.67-6.98L701.67-6.98 701.67-25.44Q701.67-28.42 701.28-29.59L701.28-29.59Q701.09-29.98 699.91-30.35 698.74-30.71 698.16-30.71L698.16-30.71Q697.96-30.71 697.96-31.45L697.96-31.45Q697.96-32.23 698.06-32.32L698.06-32.32Q698.3-32.32 700.77-32.18 703.24-32.03 704.55-32.03L704.55-32.03Q704.94-32.03 710.8-32.32L710.8-32.32Q710.95-31.88 710.95-31.54L710.95-31.54Q710.95-30.71 710.75-30.71L710.75-30.71Q710.32-30.71 709-30.32 707.68-29.93 707.58-29.59L707.58-29.59Q707.19-28.08 707.19-25.29ZM730.04-27.37Q729.16-28.27 729.16-29.52 729.16-30.76 730.04-31.64 730.92-32.52 732.19-32.52 733.46-32.52 734.34-31.64 735.22-30.76 735.22-29.52 735.22-28.27 734.34-27.37 733.46-26.46 732.19-26.46 730.92-26.46 730.04-27.37ZM735.12-16.31L735.12-6.93Q735.12-3.96 735.51-2.54L735.51-2.54Q735.61-2.2 736.83-1.83 738.05-1.46 738.49-1.46L738.49-1.46Q738.68-1.46 738.71-0.76 738.73-0.05 738.63 0.2L738.63 0.2Q738.29 0.15 736.02 0 733.75-0.15 732.68-0.15L732.68-0.15Q731.46-0.15 729.23 0 727.01 0.15 726.67 0.2L726.67 0.2Q726.47 0 726.47-0.73 726.47-1.46 726.67-1.46L726.67-1.46Q727.21-1.46 728.43-1.83 729.65-2.2 729.75-2.54L729.75-2.54Q730.09-4 730.09-6.1L730.09-6.1 730.09-14.06Q730.09-16.36 729.31-17.19L729.31-17.19Q728.87-17.68 728.18-17.92 727.5-18.16 727.01-18.21 726.52-18.26 726.52-18.36L726.52-18.36Q726.52-19.78 726.82-19.82L726.82-19.82Q728.18-19.92 730.77-20.41 733.36-20.9 734.63-21.29L734.63-21.29Q734.68-21.29 734.85-21.34 735.02-21.39 735.02-21.39L735.02-21.39Q735.26-21.39 735.41-21.04 735.56-20.7 735.51-20.51L735.51-20.51Q735.12-17.38 735.12-16.31L735.12-16.31ZM754.99-33.94L754.99-33.94Q757.04-33.94 758.38-33.42 759.72-32.91 760.16-32.18L760.16-32.18Q760.36-30.66 759.9-29.47 759.43-28.27 758.11-28.27L758.11-28.27Q757.28-28.27 756.62-29.08 755.96-29.88 755.23-30.69 754.5-31.49 753.52-31.49L753.52-31.49Q752.2-31.49 751.33-30.22 750.45-28.96 750.08-27.15 749.71-25.34 749.71-23.19L749.71-23.19 749.71-20.95Q749.71-20.9 749.81-20.8 749.91-20.7 750.01-20.7L750.01-20.7 755.38-20.7Q755.57-20.7 755.62-20.65 755.67-20.61 755.67-20.36L755.67-20.36Q755.67-19.29 755.09-18.12L755.09-18.12 750.01-18.12Q749.71-18.12 749.71-17.82L749.71-17.82 749.71-6.93Q749.71-4.05 750.11-2.54L750.11-2.54Q750.2-2.2 751.4-1.83 752.6-1.46 753.03-1.46L753.03-1.46Q753.18-1.46 753.21-0.76 753.23-0.05 753.13 0.2L753.13 0.2Q752.84 0.15 750.59 0 748.35-0.15 747.18-0.15L747.18-0.15Q746-0.15 743.86 0 741.71 0.15 741.32 0.2L741.32 0.2Q741.17 0.05 741.12-0.34 741.07-0.73 741.12-1.1 741.17-1.46 741.32-1.46L741.32-1.46Q741.85-1.46 743.03-1.83 744.2-2.2 744.29-2.54L744.29-2.54Q744.73-4.25 744.73-6.54L744.73-6.54 744.73-17.77Q744.73-18.12 744.44-18.12L744.44-18.12 741.51-18.12Q741.41-18.12 741.41-18.41L741.41-18.41Q741.41-18.95 742.1-19.82 742.78-20.7 743.66-20.7L743.66-20.7 744.44-20.7Q744.73-20.7 744.73-21L744.73-21 744.73-21.48Q744.73-26.61 747.79-30.27 750.84-33.94 754.99-33.94ZM767.78-19.34L767.78-19.34Q766.61-19.34 765.68-18.65 764.75-17.97 764.26-16.99 763.77-16.02 763.55-15.16 763.34-14.31 763.34-13.72L763.34-13.72Q763.34-13.38 763.63-13.38L763.63-13.38 771.54-13.38Q771.98-13.38 771.98-14.11L771.98-14.11Q771.98-15.82 770.83-17.58 769.68-19.34 767.78-19.34ZM768.12-21.58L768.12-21.58Q770.42-21.58 772.22-20.68 774.03-19.78 775.05-18.38 776.08-16.99 776.62-15.5 777.15-14.01 777.15-12.65L777.15-12.65Q777.15-11.57 776.79-11.3 776.42-11.04 775.3-11.04L775.3-11.04 763.63-11.04Q763.29-11.04 763.29-10.74L763.29-10.74Q763.29-8.98 763.92-7.32 764.56-5.66 766.09-4.44 767.63-3.22 769.78-3.22L769.78-3.22Q770.51-3.22 771.2-3.3 771.88-3.37 772.47-3.54 773.05-3.71 773.49-3.86 773.93-4 774.39-4.3 774.86-4.59 775.05-4.71 775.25-4.83 775.64-5.1 776.03-5.37 776.03-5.37L776.03-5.37Q776.13-5.32 776.27-5.08 776.42-4.83 776.42-4.59L776.42-4.59Q776.42-4.05 776.13-3.66L776.13-3.66Q775.4-2.34 773.25-1.03 771.1 0.29 768.41 0.29L768.41 0.29Q764.17 0.29 761.09-2.86 758.01-6.01 758.01-10.5L758.01-10.5Q758.01-15.43 760.87-18.51 763.73-21.58 768.12-21.58Z" opacity="1" transform="matrix(1,0,0,1,0,0)" fill="#000000" className="undefined-text-1" data-fill-palette-color="secondary" id="text-1"></path></svg></g></svg></g></svg></g></svg></g><g transform="matrix(1,0,0,1,465.77204964323613,27.806301571891915)"><svg viewBox="0 0 244.43135999999998 122.51779831843523" height="122.51779831843523" width="244.43135999999998"><g><svg xmlns="http://www.w3.org/2000/svg" xmlns:xlink="http://www.w3.org/1999/xlink" xml:space="preserve" style="shape-rendering:geometricPrecision;text-rendering:geometricPrecision;image-rendering:optimizeQuality;" viewBox="0.0000020265579223632812 0.0000027120113372802734 14.727499008178711 7.38195276260376" x="0" y="0" fill-rule="evenodd" clip-rule="evenodd" width="244.43135999999998" height="122.51779831843523" className="icon-icon-0" data-fill-palette-color="accent" id="icon-0"><g fill="#551e19" data-fill-palette-color="accent"><path className="" d="M1.757 3.091c-0.313 0.444-0.296 1.331-0.417 1.95-0.153 0.784-0.711 1.203-1.34 1.534 0.188-0.771 0.348-1.542 0.412-2.313 0.078-0.953-0.06-0.891 0.767-1.575 1.159-0.961 3.04-1.741 5.848-2.29 2.456-0.406 5.049-0.453 7.701-0.351-0.89 1.809-3.733 1.961-7.203 1.581-1.811 0.02-3.495-0.488-5.768 1.464z m8.33 2.781c-3.895 2.038-7.803-2.284-9.165 0.688 2.104-1.831 5.079 3.183 9.165-0.688z m2.489-2.547c-4.49 2.72-9.502-0.792-10.907 1.859 3.412-1.235 7.765 2.753 10.907-1.859z m0.834-1.478c-3.944 1.761-10.043-1.402-11.565 2.239 3.106-1.808 8.446 1.438 11.565-2.239z" fill="#000000" data-fill-palette-color="accent"></path></g></svg></g></svg></g></svg></g></svg><rect width="395.52" height="99.20275716745549" fill="none" stroke="none" visibility="hidden"></rect></g></svg></g></svg>